<?xml version="1.0" standalone="no"?>
<!DOCTYPE svg PUBLIC "-//W3C//DTD SVG 20010904//EN"
 "http://www.w3.org/TR/2001/REC-SVG-20010904/DTD/svg10.dtd">
<svg version="1.0" xmlns="http://www.w3.org/2000/svg"
 width="600.000000pt" height="600.000000pt" viewBox="0 0 600.000000 600.000000"
 preserveAspectRatio="xMidYMid meet">
<metadata>
Created by potrace 1.14, written by Peter Selinger 2001-2017
</metadata>
<g transform="translate(0.000000,600.000000) scale(0.100000,-0.100000)"
fill="#000000" stroke="none">
<path d="M639 5616 c-2 -2 -17 -6 -34 -9 -50 -8 -157 -48 -215 -80 -193 -107
-320 -278 -376 -508 -11 -42 -13 -222 -4 -269 23 -118 21 -113 75 -222 21 -43
42 -78 47 -78 4 0 8 -6 8 -12 0 -12 108 -129 141 -153 49 -36 81 -57 129 -83
47 -25 76 -37 155 -58 42 -11 71 -15 145 -20 47 -2 91 -6 98 -9 6 -2 12 0 12
6 0 6 4 8 9 4 8 -4 144 -7 261 -4 41 1 319 0 350 -1 135 -5 180 -4 180 3 0 5
4 6 9 2 6 -3 65 -5 133 -5 68 0 139 0 158 0 148 -5 180 -4 180 3 0 5 4 6 9 2
6 -3 65 -5 133 -5 68 0 139 0 158 0 148 -5 180 -4 180 3 0 5 4 6 9 2 8 -4 137
-6 261 -4 8 0 63 -1 122 -1 59 -1 110 0 115 3 4 2 17 1 28 -3 11 -4 34 -4 52
0 19 5 36 3 42 -3 8 -8 11 -7 11 2 0 7 4 10 9 6 8 -4 137 -6 261 -4 38 1 237
0 255 -1 11 -1 27 -1 35 -1 91 2 122 1 130 -4 5 -3 11 -1 15 5 4 6 11 8 16 5
8 -6 121 -9 144 -5 6 1 14 2 19 1 13 -3 129 -3 141 -1 6 1 14 2 19 1 13 -3
129 -3 141 -1 6 1 14 1 20 0 5 -1 48 -1 95 0 47 0 101 0 120 0 145 -5 180 -4
180 3 0 5 4 6 9 2 6 -3 63 -5 128 -5 160 1 147 1 248 1 147 0 217 12 328 55
163 64 313 203 390 363 17 36 33 71 34 76 1 6 11 46 22 90 27 109 21 304 -11
382 -6 15 -12 34 -14 40 -6 32 -70 149 -107 196 -49 63 -147 156 -164 157 -7
0 -13 4 -13 9 0 12 -156 87 -210 101 -25 7 -54 15 -65 18 -21 7 -4749 15
-4756 8z"/>
<path d="M2850 1854 c-255 -54 -480 -246 -550 -469 -7 -22 -15 -44 -19 -50 -3
-5 -7 -17 -8 -25 -1 -8 -7 -37 -12 -65 -12 -63 -12 -201 0 -257 13 -62 31
-121 42 -135 5 -7 7 -13 3 -13 -8 0 26 -67 68 -133 31 -48 116 -142 162 -177
90 -71 187 -115 309 -141 288 -64 579 47 762 291 60 79 100 171 130 295 3 11
6 65 8 120 8 227 -69 414 -234 573 -36 34 -71 62 -78 62 -7 0 -13 4 -13 9 0 8
-138 82 -163 87 -7 2 -37 10 -67 19 -75 22 -257 27 -340 9z"/>
</g>
</svg>
